/* XPM */
static char *dfd6e47653574fbe9065b4ffd06d8584ZqgN8Et7yLmOXTT6[] = {
/* columns rows colors chars-per-pixel */
"64 63 8 1 ",
"  c #28200C",
". c #382C14",
"X c #483818",
"o c #543C1C",
"O c #5C4020",
"+ c #6C4824",
"@ c #744C28",
"# c #905C34",
/* pixels */
"++++++++++++++++++++++++++++++++++++++++++++++++++++++++++++++++",
"################################################################",
"ooooooo.o .oooooooooooooo.o .oooo.o .oooooo.o .ooooooooooo.o .oo",
"XX+@@@@o# o#OXXXX@@X+X+XXo# o#@X@o# o#OXXXOo# o#X@XX@X@X@@o# o#+",
"XX+@@@Oo# o#+XXXo@@X+X+XXo# o#@X@o# o#@OXO@o# o#X@XX@X@X@@o# o#+",
"XXO@@@oo# o#@oXXo@@X+X+XXo# o#+X@o# o#@@O@@o# o#X@XX@X@X@@o# o#+",
"oXo+@@oo# o#@oXXO@+X+X+XXo# o#+X@o# o#@@@@@o# o#X@XX@X@X@@o# o#+",
"+XXO@OXo# o#@OXo+@+X+X+XXo# o#+X@o# o#@@@@@o# o#X@XX@X@X+@o# o#o",
"+XoXOoXo# o#@+XO@@OX+X+XXo# o#OX@o# o#@@@@@o# o#X@XX@X@X+@o# o#o",
"@oXXoXXo# o#@@O+@@OX+X+XXo# o#OX@o# o#@@@@@o# o#X@XX@X@XO@o# o#o",
"@oXXXXoo# o#@@+@@@oX+X+XXo# o#XX@o# o#@@@@@o# o#X@XX@X@XO@o# o#X",
"+@XXXo@o# o#@@+@@@oX+X+XXo# o#XO@o# o#+@@@@o# o#X@XX@X@oX@o# o#X",
"+@oXXo@o# o#@@@@@+XX+X+XXo# o#XO@o# o#+@@@+o# o#X@XX@X@oX@o# o#X",
"O@@Xo@@o# o#@@@@@+XX+X+XXo# o#X@@o# o#O@@@+o# o#X@XX@X@oX@o# o#X",
"o@@@o@Oo# o#+@@@@+XX+X+XXo# o#O@@o# o#X+@+Oo# o#X@XX@X@oX@o# o#o",
"X+@@O@oo# o#+@@@@OXX+X+XXo# o#O@+o# o#XO+OXo# o#X@XX@X@OX@o# o#o",
"X+@@@@oo# o#O@@@@OXX+X+XXo# o#@@+o# o#XXOXXo# o#X@XX@X@OX+o# o#o",
"XO+@@@Xo# o#O@@@@oXX+X+XXo# o#@@Oo# o#XXXXXo# o#X@XX@X@+X+o# o#+",
"Xo+@@OXo# o#o+@@@oXo+X+XXo# o#@+Oo# o#XXXXXo# o#X@XX@X@+X+o# o#+",
"XXO@@oXo# o#o+@@+XXo+X+XXo# o#@+Xo# o#XXXXXo# o#X@XX@X@+XOo# o#+",
"XXo@@oXo# o#XO@@+XXo+X+XXo# o#@OXo# o#OXXXOo# o#X@XX@X@@XOo# o#+",
"oXoOoXXo# o#XO@@OXXO+X+XXo# o#+XXo# o#+OXO+o# o#X@XX@X+@XXo# o#+",
"oXXoXXoo# o#Xo++OXXO+X+XXo# o#OXXo# o#@+O+@o# o#X@XX@X+@oXo# o#+",
"oXXXXXoo# o#XoOOoXXOOX+XXo# o#XXXo# o#@@+@@o# o#X@XX@XO@oXo# o#O",
"+XXXXX+o# o#XXooXXX+oX+XXo# o#XXXo# o#@@@@@o# o#X@XX@XO@OXo# o#o",
"+XXXXX+o# o#XXXXXXX+oX+XXo# o#XXoo# o#@@@@@o# o#X@XX@Xo@OXo# o#o",
"+oXXXoOo# o#XXXXXXo@XX+XXo# o#XXoo# o#@@@@@o# o#X@XX@Xo@+oo# o#X",
"OoXXXooo# o#XXXXXXO@XX+XXo# o#XXOo# o#+@@@@o# o#X@XX@Xo@+oo# o#X",
"o+XXX+oo# o#XXXXXXO@XX+XXo# o#XX+o# o#+@@@@o# o#X@XX@XX@@OX# o#X",
"o+oXX+Xo# o#XXXXXX+@XX+XXo# o#Xo+o# o#O@@@+o# o#X@XX@XX@@Oo# o#X",
"XOoX+OXo# o#oXXXXX+@XX+XXo# o#XO@o# o#O+@@+o# o#X@XX@XX+@+o# o#X",
"Xo+o+oXo# o#OXXXXo@+Xo+XXo# o#o+@o# o#X+@@Oo# o#X@XX@XX+@+o# o#X",
"Xo+o+oXo# o#+oXXXO@+Xo+XXo# o#O@@o# o#XO@+Xo# o#X@XX@oXO@@o# o#X",
"XXO+OXXo# o#@OXXoO@OXO+XXo# o#+@@o# o#XX+OXo# o#X@XX@oXO@@o# o#o",
"XXoOoXXo# o#@+oXo@@oXO+XXo# o#@@@o# o#XXOXXo# o#X@XX@oXo@@o# o#o",
"XXXoXXXo# o#@@OXO@@oXO+XXo# o#@@+o# o#XXXXXo# o#X@XX@oXo@@o# o#O",
"XXXXXXXo# o#@@@O@@@XX++XXo# o#@@+o# o#XXXXXo# o#X@XX@OXo@@o# o#+",
"XXXXXXoo# o#@@@@@@+XX++XXo# o#@@Oo# o#XXXXXo# o#X@XX@OXX+@o# o#+",
"oXXXXXoo# o#+@@@@@+XX@+XXo# o#@+Oo# o#OXXXXo# o#X@XX@+XX+@o# o#+",
"oXXXXXOo# o#+@@@@@OXX@+XXo# o#@+Xo# o#OXXXXo# o#X@XX++XXO@o# o#o",
"+oXXXoOo# o#O@@@@@oXX@OXXo# o#@OXo# o#+OXXOo# o#X@XX+@XXO@o# o#o",
"+oXXXo+o# o#o@@@@@XXX@OXXo# o#+OXo# o#@OXOOo# o#X@XXO@oXo+o# o#X",
"+OoXoO+o# o#X+@@@+XXo@XXXo# o#+XXo# o#@+OO+o# o#X@XXO@oXo+o# o#X",
"++ooo+Oo# o#XO@@@OXXO@XXXo# o#OXXo# o#@@O+@o# o#X@XXo@oXoOo# o#X",
"O+OoO+oo# o#Xo+@+oXX+@XXXo# o#XXXo# o#@@+@@o# o#X@XXo@OXXOo# o#X",
"o++O++oo# o#XXo+OXXX+@XXXo# o#XXoo# o#@@@@@o# o#X@XXo@OoXoo# o#X",
"o++O++Xo# o#XXXooXXX@+XXXo# o#XXoo# o#@@@@@o# o#X@XXo@+oXoo# o#X",
"X+@@@+Xo# o#oXXXXXXo@+XXXo# o#XXOo# o#@@@@+o# o#X@XXX@+oXoo# o#X",
"XO@@@+Xo# o#oXXXXXXO@OXXXo# o#Xo+o# o#+@@@+o# o#X@XXX+@OXXo# o#X",
"Xo+@@+Xo# o#OXXXXXX+@OXXXo# o#XO@o# o#+@@@Oo# o#X@XXX+@OoXo# o#X",
"Xo+@@OXo# o#+oXXXXX+@XXXXo# o#o+@o# o#O@@@Oo# o#X@XXXO@+oXo# o#o",
"XXO@+OXo# o#@oXXXXo@+XXXXo# o#+@@o# o#O@@+oo# o#X@XXXO@+OXo# o#o",
"XXo++oXo# o#@OXXXXO@+XXOXo# o#@@@o# o#o+@+oo# o#X@oXXo+@Ooo# o#O",
"XXo+OoXo# o#++oXXX+@OXXOXo# o#@@@o# o#o+@OXo# o#X@oXXoO@+oo# o#O",
"XXXOOXXo# o#+@oXXo+@XXX+Xo# o#@@@o# o#XO+oXo# o#X@oXXXO@+oo# o#+",
"XXXooXXo# o#O@+oXo@@XXX+Xo# o#@@@o# o#XoOXXo# o#X@oXXXo+@oo# o#+",
"oXXXXXoo# o#X+@+o@@+XXX+Xo# o#@@@o# o#XXoXXo# o#X+OXXXoO@+o# o#@",
"oXXXXXoo# o#XO@@@@@OXXX@Xo# o#@@+o# o#XXXXXo# o#X++XXXXO@+o# o#@",
"OXXXXX+o# o#XX@@@@+XXXO@Xo# o#@@+o# o#XXXXXo# o#XO+oXXXo++o# o#@",
"OoXXXo+o# o#XXO+@+OXXX+@Xo# o#@+Oo# o#XXXXXo# o#XO@oXXXXOOo# o#@",
"+oXXXo+o# o#XXXO+OXXXX+@Xo# o#@+Oo# o#XXXXXo# o#XX@oXXXXXoo# o#@",
"+OXXXo+o# o#XXXXOXXXX+@@Oo# o#+OXo# o#XXXXXo# o#OX@OXXXXXXo# o#@",
"OOOOOOOo# o#OXXXXXXXOOOOOo# o#OXXo# o#OXXXOo# o#OXOOXXXXXXo# o#O"
};
